<svg id="visual" viewBox="0 0 960 540" width="960" height="540" xmlns="http://www.w3.org/2000/svg" xmlns:xlink="http://www.w3.org/1999/xlink" version="1.1"><path d="M0 168L16 166C32 164 64 160 96 163.7C128 167.3 160 178.7 192 191C224 203.3 256 216.7 288 205.8C320 195 352 160 384 159.5C416 159 448 193 480 195C512 197 544 167 576 157.2C608 147.3 640 157.7 672 160.3C704 163 736 158 768 163.7C800 169.3 832 185.7 864 187.7C896 189.7 928 177.3 944 171.2L960 165L960 0L944 0C928 0 896 0 864 0C832 0 800 0 768 0C736 0 704 0 672 0C640 0 608 0 576 0C544 0 512 0 480 0C448 0 416 0 384 0C352 0 320 0 288 0C256 0 224 0 192 0C160 0 128 0 96 0C64 0 32 0 16 0L0 0Z" fill="#FF1616" stroke-linecap="round" stroke-linejoin="miter"></path></svg>